<svg width="64" height="64" viewBox="0 0 64 64" fill="none" xmlns="http://www.w3.org/2000/svg">
<g clip-path="url(#clip0_645_7132)">
<path d="M52.8934 22.8671C51.3128 26.0526 49.7719 29.1297 48.2647 32.225C48.0553 32.6532 47.8217 32.794 47.357 32.7819C46.0569 32.7482 44.7556 32.7699 43.3495 32.7699C43.4663 32.5149 43.5469 32.326 43.6384 32.1419C45.4333 28.5186 47.2258 24.8929 49.0316 21.2756C49.2049 20.9279 49.2434 20.6464 49.0797 20.2687C48.8763 19.7984 48.7932 19.2751 48.6415 18.7157H36.2241V55.7056C37.4123 55.7056 38.5691 55.7296 39.7248 55.6935C40.2051 55.6779 40.4808 55.8403 40.7348 56.2433C41.4282 57.3452 42.1553 58.4267 42.9053 59.4913C43.0377 59.679 43.3303 59.8065 43.5698 59.8522C43.9586 59.928 44.3716 59.8774 44.764 59.9424C46.1424 60.1722 47.2102 61.3787 47.2848 62.7706C47.3065 63.1675 47.2884 63.5657 47.2884 64.0024H16.8064C16.2599 61.8419 17.6937 59.8847 19.9027 59.8895C20.6587 59.8919 21.0993 59.6681 21.4725 59.0161C21.9973 58.0959 22.6763 57.2646 23.2072 56.348C23.5165 55.8138 23.8885 55.6731 24.4664 55.6947C25.5618 55.7369 26.6597 55.7068 27.7901 55.7068V18.7013H15.4052C15.2078 19.334 14.9875 19.9307 14.8466 20.5454C14.7961 20.7631 14.8912 21.0482 14.9971 21.2636C16.7836 24.8917 18.5821 28.5138 20.377 32.1371C20.4637 32.3128 20.5419 32.4932 20.6695 32.7687C19.5223 32.7687 18.4448 32.6857 17.3855 32.7928C16.3526 32.8974 15.8506 32.5293 15.4136 31.5898C14.0653 28.687 12.5979 25.8384 11.128 22.8719C11.0028 23.1029 10.9089 23.2605 10.8271 23.4253C9.35598 26.3822 7.8789 29.3366 6.42709 32.3031C6.24772 32.6688 6.04547 32.7855 5.65062 32.7783C4.31197 32.7543 2.97332 32.7687 1.54077 32.7687C1.6756 32.486 1.77311 32.2743 1.87664 32.0662C3.67154 28.4428 5.47366 24.8219 7.2517 21.1902C7.36366 20.9628 7.39135 20.6067 7.29625 20.3782C6.2116 17.7894 7.72601 15.031 10.4924 14.539C12.8555 14.1192 15.2114 13.6572 17.5673 13.1977C20.2373 12.678 22.9038 12.1415 25.6317 11.6014V13.2831H38.3512V11.5881C41.2789 12.1692 44.1224 12.7406 46.9694 13.2975C49.1483 13.7234 51.3272 14.1516 53.5122 14.539C56.2834 15.0298 57.8002 17.781 56.7204 20.3722C56.6253 20.6019 56.6481 20.9568 56.7589 21.1842C58.5369 24.8159 60.3391 28.4356 62.1352 32.0589C62.2387 32.2683 62.3362 32.48 62.4734 32.7687C60.9458 32.7687 59.5084 32.7831 58.0723 32.7482C57.9122 32.7446 57.7027 32.4884 57.61 32.3019C56.1486 29.3848 54.7016 26.4592 53.251 23.536C53.1546 23.3423 53.0475 23.1546 52.8934 22.8671Z" fill="#3B797F"/>
<path d="M0 35.8615H22.2057C22.0925 39.7193 20.5119 42.7544 17.4037 44.957C13.7946 47.5145 8.90106 47.612 5.18005 45.1892C1.83824 43.0143 0.160108 39.883 0 35.8615Z" fill="#88C6AE"/>
<path d="M41.8773 35.8555H63.9999C63.9145 39.4006 62.5433 42.2985 59.8022 44.5036C56.2642 47.3498 51.4645 47.7179 47.5148 45.5249C44.0105 43.5785 41.4921 39.2947 41.8773 35.8555Z" fill="#88C6AE"/>
<path d="M36.1544 11.1142H27.8745C27.8552 10.9469 27.8275 10.811 27.8275 10.6763C27.8251 8.53139 27.7986 6.38651 27.8348 4.24283C27.8636 2.48891 28.6666 1.15603 30.2737 0.415007C31.8074 -0.291131 33.2869 -0.0842219 34.6195 0.952732C35.5332 1.66368 36.1086 2.62726 36.1363 3.77849C36.1953 6.19765 36.1544 8.62041 36.1544 11.1154V11.1142Z" fill="#88C6AE"/>
</g>
<defs>
<clipPath id="clip0_645_7132">
<rect width="64" height="64" fill="white"/>
</clipPath>
</defs>
</svg>
