<svg width="80" height="64" viewBox="0 0 80 64" fill="none" xmlns="http://www.w3.org/2000/svg">
<g clip-path="url(#clip0_645_7102)">
<path d="M40.5786 60.8513C24.7706 60.8513 11.9688 48.3518 11.9602 32.9073C11.9516 17.4418 24.8035 4.88793 40.6143 4.91864C56.4208 4.94795 69.2041 17.4669 69.197 32.9087C69.1898 48.3546 56.3894 60.8527 40.5786 60.8527V60.8513ZM40.6 9.9533C27.6725 9.92259 17.1495 20.172 17.1095 32.8347C17.0695 45.5184 27.5467 55.7831 40.5586 55.8054C53.5233 55.8278 64.0162 45.6147 64.0477 32.9436C64.0791 20.2613 53.5962 9.98261 40.5986 9.9519L40.6 9.9533Z" fill="#3B797F"/>
<path d="M8.75964 8.15549C7.40944 6.84204 6.06782 5.53557 4.6119 4.11883C8.8868 3.40278 13.0102 2.71326 17.2694 2C16.5507 6.10785 15.8435 10.1585 15.1234 14.2747C13.8575 13.0017 12.6545 11.793 11.31 10.4404C10.2713 11.9995 9.2297 13.3297 8.43673 14.7897C1.46859 27.613 1.74292 40.2687 9.59833 52.6453C10.7528 54.4641 12.343 56.0176 13.7175 57.7051C13.9775 58.0248 14.259 58.3709 14.3762 58.7506C14.5819 59.4136 14.2147 60.1087 13.5932 60.4674C12.9888 60.8164 12.233 60.7661 11.6829 60.2497C11.0314 59.6397 10.4113 58.9948 9.82121 58.329C4.41044 52.2252 1.16855 45.1666 0.268421 37.1366C-0.918891 26.5396 1.83865 16.9951 8.49388 8.53655C8.57961 8.42767 8.65248 8.30903 8.75964 8.15549Z" fill="#3B797F"/>
<path d="M72.3289 55.5793C73.8177 57.0142 75.2665 58.4114 76.8081 59.8965C72.5961 60.6 68.4741 61.2895 64.2178 62C64.9436 57.8503 65.648 53.8178 66.3567 49.763C67.5354 50.9439 68.6884 52.0982 69.9243 53.3377C70.1872 52.9873 70.3272 52.8128 70.453 52.63C75.7237 44.9517 77.6997 36.5252 76.3466 27.3827C75.2236 19.7951 71.8474 13.2669 66.4224 7.74094C66.2738 7.5902 66.1223 7.44224 65.9852 7.28173C65.3937 6.58801 65.4279 5.6947 66.0609 5.08473C66.7067 4.4636 67.6325 4.40079 68.2984 5.04425C69.2085 5.9264 70.0986 6.83786 70.9044 7.81073C77.7754 16.1032 80.763 25.5933 79.8357 36.2097C79.2442 42.9808 76.9039 49.1754 72.9033 54.7544C72.7419 54.9805 72.5861 55.2094 72.3304 55.5779L72.3289 55.5793Z" fill="#3B797F"/>
<path d="M60.7273 32.9059C60.7173 43.7792 51.706 52.5714 40.573 52.5672C29.4414 52.5644 20.4287 43.7625 20.4287 32.8947C20.4287 22.0103 29.41 13.2404 40.5644 13.2293C51.6432 13.2195 60.7359 22.0926 60.7259 32.9045L60.7273 32.9059ZM41.756 31.5994C41.756 31.2714 41.756 31.0216 41.756 30.7717C41.756 29.0535 41.7718 27.3366 41.7446 25.6184C41.7303 24.7335 41.2674 24.2617 40.5402 24.2784C39.7915 24.2952 39.2514 24.8326 39.2457 25.6589C39.2271 27.9801 39.2271 30.3013 39.2457 32.6225C39.2528 33.5117 39.7672 34.017 40.663 34.0239C42.7305 34.0393 44.7979 34.0365 46.8639 34.0239C47.6212 34.0197 48.0141 33.6638 48.0627 33.0134C48.1141 32.3364 47.6898 31.7572 47.0197 31.6455C46.6953 31.5911 46.3567 31.6022 46.0252 31.6008C44.6279 31.5966 43.232 31.5994 41.7575 31.5994H41.756ZM25.6823 34.0281C26.0381 34.0281 26.3939 34.0435 26.7482 34.0253C27.5354 33.9849 28.0655 33.481 28.0898 32.7705C28.1141 32.0586 27.6226 31.4919 26.8325 31.4417C26.0552 31.3914 25.268 31.3942 24.4907 31.4417C23.702 31.4906 23.2648 31.9833 23.2648 32.7049C23.2648 33.4209 23.7835 33.9681 24.5464 34.0211C24.9236 34.0477 25.3037 34.0253 25.6823 34.0281ZM55.3037 34.0295C55.6366 34.0295 55.9681 34.0365 56.301 34.0295C57.1968 34.0072 57.6898 33.5815 57.7226 32.8068C57.7555 32.0419 57.2111 31.4696 56.3481 31.4291C55.638 31.3956 54.9236 31.3942 54.2135 31.4305C53.332 31.4752 52.8891 31.9554 52.9134 32.7593C52.9362 33.5117 53.4649 33.9974 54.3078 34.0281C54.6393 34.0407 54.9722 34.0295 55.3051 34.0309L55.3037 34.0295ZM39.0871 47.4837C39.0871 47.4837 39.0842 47.4837 39.0828 47.4837C39.0828 47.8089 39.0728 48.1327 39.0842 48.4579C39.1128 49.301 39.5372 49.756 40.3101 49.7867C41.106 49.8188 41.6789 49.361 41.7332 48.5515C41.7832 47.7894 41.7818 47.0189 41.7275 46.2582C41.6746 45.4974 41.146 45.0703 40.4073 45.0857C39.6958 45.101 39.1514 45.5854 39.0928 46.3014C39.0599 46.6936 39.0871 47.09 39.0871 47.4837ZM39.2443 18.2849H39.2414C39.2414 18.6561 39.2243 19.0274 39.2443 19.3973C39.2914 20.2264 39.7372 20.6633 40.5244 20.6759C41.316 20.687 41.8661 20.2069 41.9075 19.3987C41.9446 18.6827 41.9418 17.961 41.9075 17.2436C41.8689 16.4243 41.3903 15.9943 40.5973 15.9957C39.8458 15.9971 39.3157 16.4745 39.25 17.2422C39.22 17.587 39.2443 17.9373 39.2443 18.2849ZM32.1547 23.4507C31.9246 22.9329 31.8189 22.4904 31.5603 22.1624C31.186 21.6878 30.7159 21.283 30.2601 20.8755C29.7015 20.3758 28.9642 20.3758 28.4599 20.8378C27.9641 21.2928 27.9184 22.0312 28.397 22.5965C28.8656 23.1506 29.3657 23.681 29.8701 24.2045C30.2873 24.6386 30.8488 24.8074 31.3531 24.4962C31.6975 24.2826 31.8818 23.822 32.1547 23.4493V23.4507ZM32.1218 42.3639C31.8346 42.0051 31.6046 41.5696 31.2431 41.3058C30.8088 40.989 30.2673 41.0825 29.8643 41.4412C29.27 41.9716 28.6442 42.4951 28.1827 43.1274C27.9555 43.4386 27.9126 44.05 28.0698 44.4059C28.2141 44.7284 28.7185 45.0271 29.1071 45.0913C29.9644 45.235 31.9789 43.3284 32.1204 42.3625L32.1218 42.3639ZM49.9972 41.1537C49.8258 41.3003 49.3343 41.5306 49.1957 41.8907C49.0542 42.2564 49.1114 42.8538 49.3428 43.1664C49.8086 43.796 50.3987 44.3724 51.0445 44.8261C51.3646 45.0508 51.9847 45.108 52.349 44.9601C52.6776 44.8261 52.9862 44.3333 53.0519 43.9565C53.1991 43.1246 51.156 41.1244 49.9972 41.1551V41.1537ZM53.2348 21.7088C52.9476 21.3486 52.7305 20.8252 52.3561 20.6745C51.9789 20.5223 51.3417 20.5963 51.0017 20.8294C50.3716 21.2607 49.7943 21.8232 49.3571 22.4416C49.1228 22.7724 49.0728 23.3907 49.2257 23.769C49.3528 24.083 49.8772 24.3678 50.2644 24.4292C51.0488 24.552 53.0705 22.6091 53.2334 21.7088H53.2348Z" fill="#3B797F"/>
<path d="M41.7561 31.5994C43.2306 31.5994 44.6279 31.5966 46.0238 31.6008C46.3553 31.6008 46.6939 31.591 47.0183 31.6454C47.6884 31.7571 48.1127 32.3378 48.0613 33.0133C48.0127 33.6638 47.6198 34.0197 46.8625 34.0239C44.7951 34.0364 42.7277 34.0392 40.6616 34.0239C39.7672 34.0169 39.2514 33.5116 39.2443 32.6225C39.2272 30.3013 39.2272 27.9801 39.2443 25.6588C39.2514 24.8311 39.7901 24.2951 40.5388 24.2784C41.2675 24.2616 41.7289 24.7334 41.7432 25.6184C41.7704 27.3352 41.7532 29.0534 41.7547 30.7717C41.7547 31.0215 41.7547 31.2714 41.7547 31.5994H41.7561Z" fill="#88C6AE"/>
</g>
<defs>
<clipPath id="clip0_645_7102">
<rect width="80" height="60" fill="white" transform="translate(0 2)"/>
</clipPath>
</defs>
</svg>
