<svg width="64" height="64" viewBox="0 0 64 64" fill="none" xmlns="http://www.w3.org/2000/svg">
<g clip-path="url(#clip0_645_11582)">
<path d="M52.8087 10.8865V6.55052C52.5863 6.55052 52.3639 6.55052 52.1402 6.55052C50.3849 6.55052 48.6284 6.5556 46.8731 6.54797C45.7292 6.54288 44.9806 5.87385 44.9717 4.87283C44.9641 3.8909 45.7356 3.14427 46.8426 3.13664C49.3592 3.11883 51.8771 3.11629 54.3937 3.13664C55.5948 3.14682 56.2531 3.85783 56.2557 5.06362C56.2595 6.77819 56.2557 8.49276 56.2557 10.2073C56.2557 10.4134 56.2557 10.6182 56.2557 10.8853C57.2293 10.8853 58.1329 10.8827 59.0366 10.8853C60.5695 10.8904 61.1986 11.5162 61.1999 13.0374C61.1999 17.2284 61.1999 21.4194 61.1999 25.6105V26.4118C61.5392 26.4118 61.8455 26.4016 62.1506 26.4131C63.3822 26.4639 63.9961 27.105 63.9973 28.34C63.9986 33.3362 63.9973 38.3311 63.9973 43.3273C63.9973 44.7035 63.372 45.3293 61.9815 45.3484C61.7502 45.3522 61.5189 45.3484 61.1999 45.3484V46.1243C61.1999 50.3369 61.1999 54.5496 61.1999 58.7609C61.1999 60.2033 60.5517 60.8635 59.118 60.8635C47.4629 60.866 35.8078 60.866 24.154 60.8596C23.8617 60.8596 23.5579 60.8278 23.2808 60.7439C22.5169 60.5099 22.3149 60.1194 22.6072 59.3804C25.1225 53.0258 27.6073 46.6572 30.1824 40.3255C33.9738 31.0035 37.8312 21.7069 41.6608 12.4001C42.1692 11.1638 42.5848 10.8827 43.9104 10.8815C46.6393 10.8802 49.3681 10.8815 52.097 10.8815H52.81L52.8087 10.8865ZM39.4823 35.8801C41.1676 37.7715 42.8339 39.6247 44.4735 41.4995C44.7684 41.8366 45.0683 41.951 45.5055 41.9498C50.2832 41.9358 55.0609 41.9409 59.8386 41.9409C60.0649 41.9409 60.2924 41.9409 60.5529 41.9409V29.888C60.403 29.8702 60.2809 29.8422 60.1577 29.8422C55.1893 29.8397 50.2222 29.8358 45.2539 29.8549C45.0213 29.8549 44.7379 30.0152 44.5688 30.1894C43.9664 30.8114 43.402 31.4716 42.825 32.119C41.718 33.3642 40.6122 34.6107 39.4823 35.8814V35.8801Z" fill="#3B797F"/>
<path d="M0.0341974 30.4756C0.0341974 23.3413 0.104102 16.207 -0.000119655 9.07524C-0.0420627 6.14597 2.07034 3.10223 5.9863 3.11749C15.3561 3.15565 24.7272 3.12894 34.0983 3.13402C34.3919 3.13402 34.6919 3.15692 34.9766 3.22179C35.6883 3.38587 36.0989 3.85521 36.2374 4.5675C36.4242 5.52781 35.7252 6.45505 34.7465 6.53391C34.4732 6.55553 34.1974 6.55044 33.9216 6.55044C24.6357 6.55044 15.3498 6.54917 6.06383 6.55935C5.62787 6.55935 5.1665 6.60259 4.76105 6.74887C3.81416 7.0872 3.28669 8.13528 3.46463 9.17445C3.62478 10.1131 4.4738 10.8369 5.47408 10.8814C5.70668 10.8916 5.93927 10.8877 6.17186 10.8877C14.2097 10.8877 22.2475 10.8877 30.2853 10.8877C30.4543 10.8877 30.6247 10.8979 30.7924 10.8865C32.4473 10.7745 33.4552 11.815 32.6722 13.7191C31.0606 17.643 29.3918 21.544 27.7458 25.454C22.9898 36.7564 18.2324 48.0575 13.4763 59.3587C12.9565 60.5925 12.5434 60.8786 11.2177 60.8672C9.61628 60.8519 8.00719 60.9753 6.42988 60.5289C2.63975 59.4541 0.0367394 56.058 0.0354684 52.1303C0.0329264 44.912 0.0354684 37.6938 0.0354684 30.4756H0.0341974Z" fill="#3B797F"/>
<path d="M14.6992 62.2549C14.8098 61.9179 14.8975 61.5706 15.0348 61.245C21.5982 45.6473 28.1655 30.0521 34.7327 14.4556C36.5833 10.061 38.4314 5.66397 40.2832 1.26943C40.6721 0.347274 41.3013 -0.0788243 42.116 0.0102112C42.9053 0.0979748 43.5255 0.606749 43.6107 1.40934C43.6564 1.8418 43.5268 2.33022 43.3539 2.74233C40.8145 8.81709 38.2547 14.883 35.7 20.9514C29.8623 34.8193 24.0246 48.6885 18.1868 62.5564C17.7102 63.6897 17.0798 64.1272 16.1583 63.9657C15.308 63.8156 14.7475 63.1389 14.7005 62.2537L14.6992 62.2549Z" fill="#88C6AE"/>
<path d="M39.4824 35.8813C40.6123 34.6094 41.7181 33.3629 42.8252 32.1189C43.4009 31.4715 43.9665 30.8114 44.569 30.1894C44.738 30.0151 45.0227 29.8549 45.254 29.8549C50.2224 29.8358 55.1895 29.8409 60.1578 29.8421C60.2811 29.8421 60.4044 29.8701 60.5531 29.8879V41.9408C60.2913 41.9408 60.065 41.9408 59.8388 41.9408C55.0611 41.9408 50.2834 41.9357 45.5057 41.9497C45.0685 41.951 44.7685 41.8365 44.4736 41.4994C42.8341 39.6246 41.1678 37.7714 39.4824 35.88V35.8813ZM50.2923 35.8851C50.2936 34.3334 49.0747 33.0945 47.5368 33.0856C45.9849 33.0767 44.705 34.3562 44.7177 35.9042C44.7304 37.428 45.9912 38.6694 47.524 38.6656C49.0709 38.663 50.291 37.4369 50.2923 35.8851Z" fill="#88C6AE"/>
<path d="M50.2922 35.8851C50.291 37.4369 49.0708 38.6631 47.524 38.6656C45.9924 38.6681 44.7303 37.4267 44.7176 35.9042C44.7049 34.3563 45.9848 33.0767 47.5367 33.0856C49.0746 33.0945 50.2935 34.3334 50.2922 35.8851Z" fill="#3B797F"/>
</g>
<defs>
<clipPath id="clip0_645_11582">
<rect width="64" height="64" fill="white"/>
</clipPath>
</defs>
</svg>
