<svg width="64" height="64" viewBox="0 0 64 64" fill="none" xmlns="http://www.w3.org/2000/svg">
<g clip-path="url(#clip0_645_6295)">
<path d="M7.17899e-05 31.9612C7.17899e-05 23.2844 7.17899e-05 14.6089 7.17899e-05 5.93207C7.17899e-05 2.30847 2.29608 0 5.90014 0C15.3135 0 24.7282 0 34.1429 0C37.7041 0 40.0001 2.3161 40.0001 5.90791C40.0001 23.3035 40.0001 40.6991 40.0001 58.0934C40.0001 61.6763 37.694 63.9975 34.1353 63.9975C24.7005 63.9975 15.2644 63.9987 5.82957 63.9975C2.32381 63.9987 0.00133195 61.6546 7.17899e-05 58.1175C-0.00118837 49.3988 7.17899e-05 40.68 7.17899e-05 31.9612ZM4.08677 13.613V50.4938H35.9247V13.613H4.08677ZM20.0454 5.55814C19.1028 5.55814 18.1615 5.54669 17.2189 5.56195C16.4363 5.57467 15.8718 6.1165 15.8529 6.83638C15.834 7.55118 16.3746 8.15533 17.1609 8.16805C19.0449 8.19857 20.9288 8.1973 22.8127 8.17059C23.6117 8.15914 24.1485 7.58425 24.1473 6.86309C24.1473 6.11904 23.5714 5.57213 22.746 5.56068C21.8462 5.54796 20.9452 5.55814 20.0454 5.55814ZM19.9761 58.564C20.3743 58.564 20.7738 58.5881 21.1695 58.5589C21.8298 58.5105 22.3339 57.9624 22.3591 57.3073C22.3843 56.6345 21.8764 56.0189 21.1846 55.9846C20.392 55.9439 19.593 55.9451 18.7991 55.9858C18.1401 56.0202 17.6448 56.6065 17.6398 57.259C17.6348 57.9306 18.1577 58.5105 18.8445 58.5601C19.22 58.5869 19.5981 58.5652 19.9749 58.564H19.9761Z" fill="#3B797F"/>
<path d="M20.0441 5.5582C20.9439 5.5582 21.8449 5.54802 22.7446 5.56074C23.57 5.57219 24.1459 6.1191 24.1459 6.86315C24.1459 7.58558 23.6104 8.1592 22.8114 8.17065C20.9275 8.19863 19.0435 8.19863 17.1596 8.16811C16.3733 8.15539 15.8327 7.55124 15.8516 6.83644C15.8705 6.11656 16.435 5.57473 17.2176 5.56201C18.1589 5.54675 19.1015 5.5582 20.0441 5.5582Z" fill="#88C6AE"/>
<path d="M19.976 58.5653C19.5992 58.5653 19.2212 58.5869 18.8456 58.5602C18.1589 58.5106 17.6346 57.9306 17.6409 57.259C17.646 56.6066 18.1412 56.0189 18.8003 55.9859C19.5929 55.9452 20.3919 55.9439 21.1858 55.9846C21.8763 56.0202 22.3854 56.6358 22.3602 57.3074C22.335 57.9611 21.831 58.5106 21.1706 58.5589C20.7749 58.5882 20.3755 58.564 19.9773 58.5653H19.976Z" fill="#88C6AE"/>
<path d="M30.0195 47.7669H10.0598C9.47639 43.6562 12.1152 40.9076 15.0261 40.5057C15.2693 40.4727 15.5655 40.5312 15.781 40.6507C18.5962 42.2088 21.395 42.2113 24.2228 40.6634C24.5416 40.4892 25.0318 40.4917 25.4036 40.5795C28.1507 41.2282 29.9237 43.5392 30.0183 46.537C30.0309 46.9338 30.0195 47.3319 30.0195 47.7682V47.7669Z" fill="#88C6AE"/>
<path d="M19.9874 39.1525C16.8811 39.141 14.4516 36.6456 14.4642 33.4824C14.4768 30.4452 16.9857 27.9434 20.0139 27.9497C23.095 27.9561 25.5473 30.482 25.5359 33.6363C25.5246 36.6876 23.0332 39.1639 19.9874 39.1525Z" fill="#88C6AE"/>
<path d="M19.9988 22.2389C23.962 22.2389 27.924 22.2363 31.8872 22.2401C32.8096 22.2401 33.3968 22.6942 33.4712 23.4357C33.5468 24.1899 33.1574 24.7597 32.4177 24.9264C32.1556 24.9849 31.8771 24.9861 31.6061 24.9861C23.8688 24.9887 16.1326 24.9887 8.39526 24.9861C8.12433 24.9861 7.84583 24.9849 7.58372 24.9264C6.89063 24.7737 6.50124 24.2573 6.51889 23.5642C6.53527 22.9219 6.9549 22.4118 7.61018 22.2783C7.83323 22.2325 8.06888 22.2401 8.29823 22.2401C12.1984 22.2376 16.0986 22.2389 19.9976 22.2389H19.9988Z" fill="#88C6AE"/>
<path d="M19.971 19.6735C15.9876 19.6735 12.0043 19.6761 8.02092 19.671C7.08084 19.671 6.4999 19.1126 6.52132 18.2668C6.53771 17.6042 6.95356 17.1081 7.61262 17.0013C7.87978 16.958 8.15449 16.953 8.42669 16.953C16.1426 16.9504 23.8573 16.9504 31.5733 16.953C31.8241 16.953 32.0774 16.9542 32.3256 16.9898C33.0716 17.0967 33.5127 17.641 33.4799 18.3915C33.4509 19.0757 32.9406 19.6036 32.2374 19.6672C32.0496 19.6837 31.8606 19.6748 31.6716 19.6748C27.7714 19.6748 23.8725 19.6748 19.9723 19.6748L19.971 19.6735Z" fill="#88C6AE"/>
</g>
<defs>
<clipPath id="clip0_645_6295">
<rect width="40" height="64" fill="white"/>
</clipPath>
</defs>
</svg>
