<svg width="64" height="64" viewBox="0 0 64 64" fill="none" xmlns="http://www.w3.org/2000/svg">
<g clip-path="url(#clip0_647_32445)">
<path d="M23.3374 0C35.9179 0.00933966 45.5985 8.3193 47.3193 19.4732C47.9579 23.613 47.2994 27.5718 45.8261 31.4233C42.5677 39.9364 37.7006 47.4093 31.1173 53.7252C30.0199 54.7783 28.7252 55.6492 27.4387 56.4746C25.5474 57.6887 23.5522 57.6759 21.6644 56.4641C20.3942 55.6492 19.1345 54.7724 18.0301 53.7497C13.2003 49.276 9.47966 43.9489 6.35204 38.1922C4.45376 34.698 2.85084 31.0695 2.04996 27.1551C0.636173 20.2379 2.31498 14.0072 6.6836 8.56563C11.2414 2.88829 17.3191 0.156439 23.3374 0ZM37.1321 22.581C37.1449 15.6661 31.5481 10.0495 24.6076 10.0109C17.6822 9.97242 12.0025 15.6217 11.9944 22.5553C11.9874 29.4619 17.6238 35.1229 24.5212 35.1346C31.4664 35.1463 37.1192 29.5192 37.1321 22.581Z" fill="#3B797F"/>
<path d="M24.6871 63.9907C18.7914 64.0701 13.0907 63.5237 7.48225 62.2103C5.97973 61.8589 4.51457 61.2939 3.09144 60.6868C2.30691 60.3517 1.56908 59.8077 0.947989 59.2146C-0.308195 58.0133 -0.319869 56.3917 0.942152 55.1951C1.62044 54.5518 2.44817 54.0241 3.28874 53.6062C5.3925 52.5601 7.67721 52.064 9.96776 51.6156C10.2538 51.5596 10.541 51.5012 10.8305 51.4767C11.482 51.4195 11.9793 51.7791 12.0739 52.3535C12.1778 52.9792 11.8415 53.4894 11.1772 53.6412C9.98411 53.9132 8.76762 54.0965 7.59549 54.4327C6.36849 54.7853 5.16835 55.2453 3.98104 55.7181C3.52106 55.9014 3.09845 56.2131 2.70968 56.5283C2.10494 57.0198 2.08276 57.3794 2.69684 57.8405C3.28174 58.2795 3.92617 58.6624 4.59279 58.9613C6.48524 59.8077 8.50377 60.2233 10.5305 60.6027C17.0904 61.8321 23.7099 62.0317 30.3469 61.6172C34.7342 61.3441 39.1017 60.8175 43.301 59.4201C44.3552 59.0699 45.3651 58.5235 46.3095 57.9316C47.0929 57.4413 47.0917 56.9334 46.3002 56.4536C45.2962 55.8453 44.2315 55.278 43.12 54.9172C41.5557 54.4094 39.9247 54.1058 38.3218 53.7171C38.2272 53.6937 38.1292 53.6926 38.0346 53.6715C37.3225 53.5128 36.9594 53.0411 37.0469 52.3908C37.1298 51.7698 37.661 51.3553 38.3743 51.4966C39.8967 51.7978 41.4249 52.1025 42.9146 52.5309C44.0832 52.8672 45.2273 53.3318 46.327 53.856C46.9983 54.1759 47.6311 54.6452 48.1658 55.1671C49.4337 56.4057 49.45 58.0262 48.1588 59.2321C47.4758 59.8696 46.6481 60.3996 45.8052 60.8117C43.6057 61.8893 41.2218 62.3854 38.8273 62.8127C34.1049 63.6556 29.3476 64.0724 24.6859 63.9919L24.6871 63.9907Z" fill="#88C6AE"/>
<path d="M24.5844 33.4185C18.5697 33.4232 13.7072 28.5665 13.7061 22.5541C13.7049 16.5826 18.5685 11.7108 24.5447 11.6991C30.5396 11.6874 35.4243 16.5709 35.4219 22.5751C35.4196 28.5607 30.5688 33.4138 24.5856 33.4185H24.5844Z" fill="#88C6AE"/>
</g>
<defs>
<clipPath id="clip0_647_32445">
<rect width="49.1231" height="64" fill="white"/>
</clipPath>
</defs>
</svg>
