<svg width="64" height="64" viewBox="0 0 64 64" fill="none" xmlns="http://www.w3.org/2000/svg">
<g clip-path="url(#clip0_645_11561)">
<path d="M58.2359 0C58.8709 0.074529 59.5167 0.0997727 60.1408 0.2308C62.6325 0.756109 63.9024 2.41017 63.9928 5.23146C64.0711 7.64884 63.5072 9.96044 62.7421 12.2252C60.9999 17.3833 58.3757 22.0967 55.3382 26.5864C50.7886 33.3121 45.5125 39.3898 39.1135 44.4385C36.417 46.5662 33.5615 48.4439 30.3228 49.676C29.8891 49.8407 29.6192 49.7866 29.2806 49.4464C24.3901 44.5323 19.485 39.6314 14.5668 34.745C14.2246 34.4048 14.174 34.1319 14.3367 33.704C15.5704 30.4679 17.4452 27.613 19.579 24.9203C25.319 17.6766 32.3361 11.8862 40.1473 7.01655C43.9787 4.62681 47.9861 2.58207 52.2911 1.16962C54.2189 0.53733 56.1864 0.0841457 58.2371 0L58.2359 0ZM32.3554 23.3781C32.353 27.964 36.0616 31.6712 40.6497 31.6688C45.2366 31.6652 48.9548 27.9448 48.944 23.3697C48.9331 18.827 45.2246 15.1198 40.6702 15.0993C36.1025 15.0789 32.359 18.8066 32.3554 23.3793V23.3781Z" fill="#3B797F"/>
<path d="M48.6983 38.564C49.0284 41.0607 49.3634 43.436 49.6357 45.8185C49.6827 46.2284 49.5309 46.6948 49.361 47.0891C48.2212 49.7313 47.0946 52.3795 45.8813 54.988C44.7512 57.4162 43.5234 59.7987 42.3306 62.1981C41.6908 63.4843 40.6076 64.1142 39.1823 63.9844C37.7545 63.8546 36.6689 63.1501 36.1062 61.8182C34.6905 58.468 33.317 55.0998 31.9278 51.7388C31.8977 51.6679 31.8868 51.5885 31.8567 51.4755C38.4654 48.5292 43.6981 43.7978 48.6983 38.5652V38.564Z" fill="#88C6AE"/>
<path d="M25.4685 15.3362C20.2261 20.332 15.4874 25.5599 12.5258 32.1978C10.8763 31.5126 9.25701 30.8346 7.63406 30.165C5.85929 29.433 4.08453 28.7009 2.30615 27.9809C0.344626 27.1863 -0.542154 24.9612 0.348241 23.0559C0.602467 22.5126 0.959107 22.1051 1.52298 21.8394C6.17256 19.648 10.8125 17.4374 15.456 15.2328C16.8163 14.5873 18.1851 14.2495 19.7405 14.5608C21.5804 14.9299 23.466 15.0753 25.4709 15.3362H25.4685Z" fill="#88C6AE"/>
<path d="M27.4745 50.9526C27.3323 51.0331 27.1119 51.1606 26.889 51.2844C25.1756 52.2388 23.4635 53.1933 21.7502 54.1477C20.0092 55.1166 18.1573 54.875 16.7392 53.4673C14.6632 51.4082 12.5932 49.343 10.5329 47.2682C9.12563 45.851 8.89069 44.0034 9.87024 42.2603C10.9474 40.343 12.0269 38.4281 13.0692 36.5769C17.8669 41.3648 22.6587 46.1479 27.4745 50.9538V50.9526Z" fill="#88C6AE"/>
<path d="M40.6207 17.3244C43.9907 17.3064 46.7029 19.9967 46.7149 23.3685C46.7258 26.7295 44.0221 29.4583 40.6641 29.4739C37.3399 29.4895 34.5687 26.7427 34.5494 23.4106C34.5301 20.0772 37.2592 17.3413 40.6207 17.3232V17.3244Z" fill="#88C6AE"/>
</g>
<defs>
<clipPath id="clip0_645_11561">
<rect width="64" height="64" fill="white"/>
</clipPath>
</defs>
</svg>
